<svg width="81" height="82" viewBox="0 0 81 82" fill="none" xmlns="http://www.w3.org/2000/svg">
<path d="M43.5 13.5L65.5 61.5L43.5 51L20.5 61.5L43.5 13.5Z" fill="#FCECD0"/>
<path fill-rule="evenodd" clip-rule="evenodd" d="M60.9025 6.22154C59.5641 4.88319 57.3942 4.88318 56.0559 6.22154L52.975 9.30244H39.875C39.0638 9.30244 38.4062 9.96002 38.4062 10.7712V28.3962C38.4062 28.7857 38.561 29.1593 38.8364 29.4347L49.6073 40.2056C50.8088 41.4071 52.1902 42.0288 53.5666 42.0732C54.9327 42.1172 56.1792 41.5858 57.0698 40.6952C57.5521 40.2129 57.929 39.6263 58.1663 38.9729L58.4198 39.2264C59.6213 40.4279 61.0027 41.0496 62.3791 41.094C63.7452 41.1381 64.9917 40.6066 65.8823 39.716C66.3812 39.2171 66.7673 38.6067 67.0028 37.926C68.0133 38.6975 69.1145 39.1002 70.2124 39.1357C71.5785 39.1797 72.825 38.6483 73.7156 37.7577C74.6063 36.867 75.1377 35.6205 75.0936 34.2544C75.0492 32.8781 74.4276 31.4966 73.2261 30.2951L72.7959 29.8649H75.125C75.9362 29.8649 76.5938 29.2074 76.5938 28.3962V10.7712C76.5938 9.96002 75.9362 9.30244 75.125 9.30244H63.9834L60.9025 6.22154ZM58.5386 15.6076L69.8584 26.9274H73.6563V12.2399H63.375C62.9855 12.2399 62.6119 12.0852 62.3364 11.8098L58.8254 8.29867C58.6342 8.10747 58.3242 8.10748 58.133 8.29867L48.8063 17.6254L49.8941 18.7131C50.85 19.6691 52.4 19.6691 53.3559 18.7131L56.4614 15.6076C57.035 15.034 57.965 15.034 58.5386 15.6076ZM55.5118 37.2866C55.495 36.7658 55.2599 36.0666 54.5031 35.3097L51.5656 32.3722C50.992 31.7987 50.992 30.8687 51.5656 30.2951C52.1392 29.7215 53.0691 29.7215 53.6427 30.2951L60.4969 37.1493C61.2537 37.9061 61.953 38.1412 62.4738 38.158C63.0048 38.1751 63.4719 37.9722 63.8052 37.6389C64.1385 37.3055 64.3415 36.8385 64.3243 36.3075C64.3075 35.7867 64.0724 35.0874 63.3156 34.3306L56.4614 27.4764C55.8879 26.9028 55.8879 25.9729 56.4614 25.3993C57.035 24.8257 57.965 24.8257 58.5386 25.3993L68.3302 35.191C69.0871 35.9478 69.7863 36.1829 70.3071 36.1997C70.8382 36.2168 71.3052 36.0139 71.6385 35.6805C71.9718 35.3472 72.1748 34.8802 72.1577 34.3491C72.1409 33.8283 71.9058 33.1291 71.1489 32.3722L57.5 18.7233L55.4331 20.7903C53.3299 22.8934 49.9201 22.8934 47.8169 20.7902L45.6906 18.6639C45.117 18.0903 45.117 17.1604 45.6906 16.5868L50.0375 12.2399H41.3438V27.7878L51.6844 38.1285C52.4412 38.8853 53.1405 39.1204 53.6613 39.1372C54.1923 39.1543 54.6594 38.9514 54.9927 38.618C55.326 38.2847 55.529 37.8177 55.5118 37.2866Z" fill="#23262A"/>
<path fill-rule="evenodd" clip-rule="evenodd" d="M4.40625 49.6872C4.40625 48.3352 5.50222 47.2393 6.85417 47.2393H15.1771V44.7913C15.1771 42.8986 16.7114 41.3643 18.6042 41.3643H28.3958C30.2886 41.3643 31.8229 42.8986 31.8229 44.7913V47.2393H40.1458C41.4978 47.2393 42.5938 48.3352 42.5938 49.6872V59.4788C42.5938 60.8308 41.4978 61.9268 40.1458 61.9268H39.6563V71.2288C39.6563 72.5808 38.5603 73.6768 37.2083 73.6768H9.79167C8.43972 73.6768 7.34375 72.5808 7.34375 71.2288V61.9268H6.85417C5.50222 61.9268 4.40625 60.8308 4.40625 59.4788V49.6872ZM18.1146 44.7913C18.1146 44.521 18.3338 44.3018 18.6042 44.3018H28.3958C28.6662 44.3018 28.8854 44.521 28.8854 44.7913V47.2393H18.1146V44.7913ZM23.5 65.8434C24.3112 65.8434 24.9688 65.1858 24.9688 64.3747V61.9268H36.7188V70.7393H10.2813V61.9268H22.0313V64.3747C22.0313 65.1858 22.6888 65.8434 23.5 65.8434ZM23.5 55.0726C24.3112 55.0726 24.9688 55.7302 24.9688 56.5413V58.9893H39.6563V50.1768H7.34375V58.9893H22.0313V56.5413C22.0313 55.7302 22.6888 55.0726 23.5 55.0726Z" fill="#23262A"/>
</svg>
